<?xml version="1.0" standalone="no"?>
<!DOCTYPE svg PUBLIC "-//W3C//DTD SVG 20010904//EN"
 "http://www.w3.org/TR/2001/REC-SVG-20010904/DTD/svg10.dtd">
<svg version="1.0" xmlns="http://www.w3.org/2000/svg"
 width="716.000000pt" height="716.000000pt" viewBox="0 0 716.000000 716.000000"
 preserveAspectRatio="xMidYMid meet">
<metadata>
Created by potrace 1.14, written by Peter Selinger 2001-2017
</metadata>
<g transform="translate(0.000000,716.000000) scale(0.100000,-0.100000)"
fill="#000000" stroke="none">
<path d="M3358 7155 c-1 -1 -41 -6 -88 -9 -47 -4 -94 -9 -105 -12 -11 -2 -42
-6 -70 -9 -51 -5 -80 -9 -125 -18 -14 -3 -43 -8 -65 -12 -22 -4 -85 -19 -140
-32 -55 -14 -104 -26 -110 -27 -74 -18 -293 -90 -337 -113 -15 -7 -29 -13 -30
-12 -9 3 -173 -68 -268 -116 -124 -62 -182 -94 -308 -170 -25 -15 -165 -108
-177 -118 -5 -4 -57 -44 -115 -88 -155 -118 -375 -323 -484 -450 -16 -19 -43
-50 -60 -69 -17 -20 -42 -51 -56 -69 -14 -19 -30 -39 -36 -45 -6 -6 -49 -67
-97 -136 -48 -69 -90 -129 -95 -135 -58 -77 -246 -446 -308 -605 -58 -151
-116 -329 -139 -428 -2 -9 -11 -43 -18 -74 -8 -32 -12 -58 -9 -58 2 0 -1 -7
-8 -15 -7 -8 -10 -15 -8 -15 3 0 -1 -30 -9 -67 -18 -91 -26 -147 -50 -358 -3
-33 -7 -175 -7 -315 0 -229 3 -303 19 -420 2 -19 7 -55 10 -80 3 -25 7 -52 9
-60 1 -8 6 -37 10 -65 4 -27 12 -66 16 -85 5 -19 11 -46 14 -60 3 -14 8 -36
11 -50 4 -14 8 -34 10 -45 9 -44 11 -50 18 -62 5 -7 6 -13 3 -13 -3 0 2 -16
10 -35 8 -19 12 -35 9 -35 -5 0 89 -276 115 -335 10 -22 30 -69 45 -105 53
-123 211 -422 227 -428 4 -2 8 -8 8 -13 0 -12 101 -163 112 -167 4 -2 8 -10 8
-17 0 -8 10 -24 23 -37 13 -13 26 -30 29 -38 22 -56 339 -401 478 -523 30 -26
66 -58 80 -71 14 -12 48 -40 75 -62 28 -21 52 -41 55 -44 17 -17 80 -60 88
-60 6 0 12 -4 14 -9 2 -7 71 -53 233 -159 11 -7 32 -18 47 -25 16 -6 28 -15
28 -19 0 -4 9 -8 20 -8 11 0 20 -4 20 -9 0 -5 10 -13 22 -17 13 -3 30 -13 40
-21 9 -8 22 -16 30 -17 24 -5 53 -19 83 -40 17 -12 31 -19 33 -18 1 2 22 -5
45 -16 108 -50 138 -62 151 -62 8 0 18 -5 21 -10 4 -6 10 -8 15 -5 5 3 11 1
14 -4 5 -7 117 -47 186 -66 3 -1 12 -5 20 -8 15 -6 235 -65 275 -73 11 -2 36
-7 55 -10 19 -3 38 -8 42 -10 3 -2 30 -7 60 -10 29 -3 56 -8 60 -10 4 -3 31
-7 60 -10 29 -3 64 -7 78 -10 136 -26 627 -25 830 1 19 2 51 6 70 9 19 2 46 7
60 10 14 3 42 8 63 11 60 8 186 35 213 45 13 5 24 8 24 5 0 -2 18 2 40 10 22
8 41 14 43 14 14 -5 324 98 344 114 7 5 13 7 13 3 0 -3 17 3 37 14 21 11 41
20 45 20 4 0 46 18 93 40 47 22 87 40 89 40 10 0 232 124 238 134 4 6 8 7 8 3
0 -5 14 3 31 17 17 14 35 26 39 26 11 0 104 62 108 73 2 4 8 7 13 7 10 0 214
152 284 211 149 128 357 337 435 438 14 17 34 42 45 55 34 40 49 59 148 196
18 25 63 95 100 155 38 61 72 117 77 125 5 8 25 46 45 83 20 38 40 76 45 85
32 57 104 226 145 337 26 72 51 139 56 150 5 11 11 29 12 40 2 11 6 27 9 35 8
20 37 120 43 145 19 81 55 246 60 275 3 19 7 46 10 60 6 36 13 88 19 145 3 28
9 75 13 105 8 68 8 553 0 635 -12 121 -27 232 -41 300 -8 41 -20 110 -22 120
0 6 -4 21 -7 35 -4 14 -15 61 -26 105 -41 171 -103 357 -177 531 -45 107 -176
368 -186 372 -5 2 -8 8 -8 13 0 12 -104 180 -152 246 -21 29 -38 55 -38 58 0
3 -7 13 -16 23 -8 9 -38 46 -65 82 -106 138 -160 200 -295 335 -146 147 -415
375 -442 375 -6 0 -12 4 -14 9 -3 9 -213 151 -223 151 -2 0 -20 11 -40 25 -31
20 -269 147 -285 150 -7 2 -100 44 -134 61 -16 8 -34 14 -40 14 -6 0 -24 7
-40 15 -41 22 -258 94 -358 121 -5 1 -10 3 -13 4 -6 3 -7 3 -80 20 -33 7 -64
15 -70 16 -5 2 -23 6 -40 9 -16 3 -41 8 -55 10 -14 3 -36 7 -50 10 -14 2 -38
7 -55 10 -16 3 -48 8 -70 10 -22 3 -56 7 -75 10 -94 13 -174 17 -397 20 -133
2 -243 2 -245 0z"/>
</g>
</svg>
